<svg width="65" height="72" viewBox="0 0 65 72" fill="none" xmlns="http://www.w3.org/2000/svg">
<path d="M34 15.6C41.12 15.6 43.76 19 44 24H52.84C52.56 17.12 48.36 10.8 40 8.76V0H28V8.64C26.44 8.96 25 9.48 23.6 10.08L29.64 16.12C30.92 15.8 32.4 15.6 34 15.6ZM5.87999 3.68L0.23999 9.32L14 23.08C14 31.4 20.24 35.96 29.64 38.72L43.68 52.76C42.32 54.72 39.48 56.4 34 56.4C25.76 56.4 22.52 52.72 22.08 48H13.28C13.76 56.76 20.32 61.68 28 63.32V72H40V63.4C43.84 62.68 47.32 61.2 49.84 58.92L58.72 67.8L64.36 62.16L5.87999 3.68Z" fill="white" fill-opacity="0.31"/>
</svg>
